<svg width="48" height="48" viewBox="0 0 48 48" fill="none" xmlns="http://www.w3.org/2000/svg">
<rect width="48" height="48" rx="24" fill="#F47825"/>
<path d="M16.9289 29.6569C16.5384 30.0474 16.5384 30.6806 16.9289 31.0711C17.3194 31.4616 17.9526 31.4616 18.3431 31.0711L16.9289 29.6569ZM31.3639 17.6361C31.3639 17.0838 30.9162 16.6361 30.3639 16.6361L21.3639 16.6361C20.8116 16.6361 20.3639 17.0838 20.3639 17.6361C20.3639 18.1884 20.8116 18.6361 21.3639 18.6361L29.3639 18.6361L29.3639 26.6361C29.3639 27.1884 29.8116 27.6361 30.3639 27.6361C30.9162 27.6361 31.3639 27.1884 31.3639 26.6361L31.3639 17.6361ZM18.3431 31.0711L31.071 18.3432L29.6568 16.929L16.9289 29.6569L18.3431 31.0711Z" fill="white"/>
</svg>
