<svg width="40" height="40" viewBox="0 0 40 40" fill="none" xmlns="http://www.w3.org/2000/svg">
<rect width="40" height="40" rx="20" fill="#F47825"/>
<path d="M13.1057 25.8337C12.8128 26.1266 12.8128 26.6015 13.1057 26.8943C13.3985 27.1872 13.8734 27.1872 14.1663 26.8943L13.1057 25.8337ZM27.1139 13.6361C27.1139 13.2219 26.7781 12.8861 26.3639 12.8861L19.6139 12.8861C19.1997 12.8861 18.8639 13.2219 18.8639 13.6361C18.8639 14.0503 19.1997 14.3861 19.6139 14.3861L25.6139 14.3861L25.6139 20.3861C25.6139 20.8003 25.9497 21.1361 26.3639 21.1361C26.7781 21.1361 27.1139 20.8003 27.1139 20.3861L27.1139 13.6361ZM14.1663 26.8943L26.8942 14.1664L25.8336 13.1058L13.1057 25.8337L14.1663 26.8943Z" fill="white"/>
</svg>
