<svg width="551" height="527" viewBox="0 0 551 527" fill="none" xmlns="http://www.w3.org/2000/svg">
<path d="M526.399 1.52588e-05L368.479 0L368.479 157.92L526.399 157.92V1.52588e-05Z" fill="url(#paint0_radial_1_1115)"/>
<path d="M204.329 0.000595093H0.000652979V105.28L210.56 315.839L0 315.839L210.56 526.399L210.56 315.839L421.121 526.401H526.401V322.421L204.329 0.000595093Z" fill="url(#paint1_radial_1_1115)"/>
<mask id="mask0_1_1115" style="mask-type:alpha" maskUnits="userSpaceOnUse" x="24" y="0" width="527" height="527">
<path fill-rule="evenodd" clip-rule="evenodd" d="M550.399 1.52588e-05L392.479 0L392.479 157.92L550.399 157.92V1.52588e-05ZM228.329 0.000595093H24.0007V105.28L234.56 315.839L24 315.839L234.56 526.399L234.56 315.839L445.121 526.401H550.401V322.421L228.329 0.000595093Z" fill="#F3690C"/>
</mask>
<g mask="url(#mask0_1_1115)">
<rect x="24" y="-175" width="526" height="492" fill="#D9D9D9"/>
<rect x="24" y="316" width="526" height="210" fill="#BBBBBB"/>
</g>
<defs>
<radialGradient id="paint0_radial_1_1115" cx="0" cy="0" r="1" gradientUnits="userSpaceOnUse" gradientTransform="translate(263.2 263.2) rotate(-180) scale(392.2 392.2)">
<stop stop-color="#F3690C"/>
<stop offset="1" stop-color="#F3690C" stop-opacity="0"/>
</radialGradient>
<radialGradient id="paint1_radial_1_1115" cx="0" cy="0" r="1" gradientUnits="userSpaceOnUse" gradientTransform="translate(263.2 263.2) rotate(-180) scale(392.2 392.2)">
<stop stop-color="#F3690C"/>
<stop offset="1" stop-color="#F3690C" stop-opacity="0"/>
</radialGradient>
</defs>
</svg>
