<svg width="80" height="80" viewBox="0 0 80 80" fill="none" xmlns="http://www.w3.org/2000/svg">
<rect width="80" height="80" rx="40" fill="url(#paint0_linear_98_25)" fill-opacity="0.2"/>
<rect x="0.5" y="0.5" width="79" height="79" rx="39.5" stroke="#F47825" stroke-opacity="0.3"/>
<path d="M29.9393 47.9393C29.3536 48.5251 29.3536 49.4749 29.9393 50.0607C30.5251 50.6464 31.4749 50.6464 32.0607 50.0607L29.9393 47.9393ZM50.4464 31.0536C50.4464 30.2252 49.7748 29.5536 48.9464 29.5536L35.4464 29.5536C34.6179 29.5536 33.9464 30.2252 33.9464 31.0536C33.9464 31.8821 34.6179 32.5536 35.4464 32.5536H47.4464V44.5536C47.4464 45.3821 48.1179 46.0536 48.9464 46.0536C49.7748 46.0536 50.4464 45.3821 50.4464 44.5536L50.4464 31.0536ZM32.0607 50.0607L50.007 32.1143L47.8857 29.993L29.9393 47.9393L32.0607 50.0607Z" fill="#F47825"/>
<defs>
<linearGradient id="paint0_linear_98_25" x1="40" y1="0" x2="40" y2="80" gradientUnits="userSpaceOnUse">
<stop stop-color="#F3690C"/>
<stop offset="1" stop-color="#F3690C" stop-opacity="0"/>
</linearGradient>
</defs>
</svg>
