<svg width="40" height="40" viewBox="0 0 40 40" fill="none" xmlns="http://www.w3.org/2000/svg">
<ellipse cx="20" cy="20" rx="20" ry="20" fill="#F47825"/>
<path d="M19.9971 17.082C18.3905 17.082 17.0793 18.3932 17.0793 19.9998C17.0793 21.6065 18.3905 22.9177 19.9971 22.9177C21.6038 22.9177 22.915 21.6065 22.915 19.9998C22.915 18.3932 21.6038 17.082 19.9971 17.082ZM28.7485 19.9998C28.7485 18.7915 28.7594 17.5942 28.6916 16.3881C28.6237 14.9872 28.3041 13.7439 27.2797 12.7194C26.2531 11.6928 25.012 11.3754 23.6111 11.3076C22.4028 11.2397 21.2054 11.2507 19.9993 11.2507C18.791 11.2507 17.5937 11.2397 16.3876 11.3076C14.9867 11.3754 13.7434 11.695 12.7189 12.7194C11.6923 13.746 11.3749 14.9872 11.3071 16.3881C11.2392 17.5964 11.2502 18.7937 11.2502 19.9998C11.2502 21.2059 11.2392 22.4055 11.3071 23.6116C11.3749 25.0125 11.6945 26.2558 12.7189 27.2802C13.7455 28.3069 14.9867 28.6243 16.3876 28.6921C17.5959 28.76 18.7932 28.749 19.9993 28.749C21.2076 28.749 22.405 28.76 23.6111 28.6921C25.012 28.6243 26.2553 28.3047 27.2797 27.2802C28.3063 26.2536 28.6237 25.0125 28.6916 23.6116C28.7616 22.4055 28.7485 21.2081 28.7485 19.9998V19.9998ZM19.9971 24.4893C17.5127 24.4893 15.5076 22.4843 15.5076 19.9998C15.5076 17.5154 17.5127 15.5103 19.9971 15.5103C22.4816 15.5103 24.4866 17.5154 24.4866 19.9998C24.4866 22.4843 22.4816 24.4893 19.9971 24.4893ZM24.6705 16.375C24.0904 16.375 23.622 15.9065 23.622 15.3265C23.622 14.7464 24.0904 14.278 24.6705 14.278C25.2506 14.278 25.719 14.7464 25.719 15.3265C25.7192 15.4642 25.6922 15.6006 25.6396 15.7279C25.5869 15.8552 25.5097 15.9708 25.4123 16.0682C25.3149 16.1656 25.1993 16.2429 25.072 16.2955C24.9447 16.3481 24.8083 16.3751 24.6705 16.375V16.375Z" fill="white"/>
</svg>
