<svg
                width="29"
                height="38"
                viewBox="0 0 29 28"
                fill="none"
                xmlns="http://www.w3.org/2000/svg"
              >
                <path
                  d="M2.68567 18.7999C2.68567 16.8117 4.29742 15.2 6.28562 15.2V15.2C8.27382 15.2 9.88557 16.8117 9.88557 18.7999V18.7999C9.88557 20.7881 8.27382 22.3999 6.28562 22.3999V22.3999C4.29742 22.3999 2.68567 20.7881 2.68567 18.7999V18.7999Z"
                  fill="#adabaa"
                />
                <path
                  d="M11.2855 13.9999C11.2855 12.0117 12.8973 10.3999 14.8855 10.3999V10.3999C16.8737 10.3999 18.4854 12.0117 18.4854 13.9999V18.7998C18.4854 20.788 16.8737 22.3997 14.8855 22.3997V22.3997C12.8973 22.3997 11.2855 20.788 11.2855 18.7998V13.9999Z"
                  fill="#adabaa"
                />
                <path
                  d="M11.2855 12.8001C11.2855 10.8119 12.8973 9.2002 14.8855 9.2002V9.2002C16.8737 9.2002 18.4854 10.8119 18.4854 12.8001V12.8001C18.4854 14.7883 16.8737 16.4001 14.8855 16.4001V16.4001C12.8973 16.4001 11.2855 14.7883 11.2855 12.8001V12.8001Z"
                  fill="#adabaa"
                />
                <path
                  d="M19.8855 9.20005C19.8855 7.21185 21.4973 5.6001 23.4855 5.6001V5.6001C25.4737 5.6001 27.0854 7.21185 27.0854 9.20005V18.7999C27.0854 20.7881 25.4737 22.3999 23.4855 22.3999V22.3999C21.4973 22.3999 19.8855 20.7881 19.8855 18.7999V9.20005Z"
                  fill="#adabaa"
                />
                <path
                  d="M19.8855 9.20005C19.8855 7.21185 21.4973 5.6001 23.4855 5.6001V5.6001C25.4737 5.6001 27.0854 7.21185 27.0854 9.20005V9.20005C27.0854 11.1882 25.4737 12.8 23.4855 12.8V12.8C21.4973 12.8 19.8855 11.1882 19.8855 9.20005V9.20005Z"
                  fill="#adabaa"
                />
              </svg>
