<svg width="40" height="40" viewBox="0 0 40 40" fill="none" xmlns="http://www.w3.org/2000/svg">
<circle cx="20" cy="20" r="20" fill="#F47825"/>
<path d="M28.7495 14.1888C28.106 14.4664 27.4056 14.6662 26.6843 14.744C27.4332 14.2991 27.9941 13.5962 28.2616 12.7671C27.5588 13.1852 26.7889 13.4783 25.986 13.6336C25.6505 13.2749 25.2446 12.9891 24.7938 12.794C24.3429 12.599 23.8568 12.4989 23.3655 12.5C21.3781 12.5 19.7797 14.111 19.7797 16.0879C19.7797 16.3655 19.8134 16.6431 19.8681 16.9102C16.8922 16.7546 14.238 15.3329 12.4735 13.1562C12.152 13.7053 11.9835 14.3306 11.9856 14.967C11.9856 16.212 12.6186 17.3098 13.584 17.9555C13.0151 17.9331 12.4595 17.7767 11.9625 17.4991V17.5433C11.9625 19.2868 13.1949 20.7316 14.8374 21.0639C14.529 21.144 14.2118 21.185 13.8931 21.1859C13.6597 21.1859 13.4389 21.1627 13.2159 21.1312C13.6702 22.5529 14.9931 23.5855 16.5683 23.6192C15.3359 24.5845 13.7922 25.1523 12.116 25.1523C11.8152 25.1523 11.5376 25.1418 11.2495 25.1082C12.8395 26.1282 14.726 26.7171 16.7576 26.7171C23.3529 26.7171 26.9619 21.2532 26.9619 16.5106C26.9619 16.355 26.9619 16.1994 26.9513 16.0438C27.6496 15.5327 28.2616 14.8997 28.7495 14.1888Z" fill="white"/>
</svg>
